<svg width="350" height="50" viewBox="0 0 350 50" fill="none" xmlns="http://www.w3.org/2000/svg">
<path d="M0 25C0 11.1929 11.1929 0 25 0H325C338.807 0 350 11.1929 350 25C350 38.8071 338.807 50 325 50H25C11.1929 50 0 38.8071 0 25Z" fill="url(#paint0_linear_182_7)"/>
<path d="M106.089 21.1591H100.408C100.332 20.5758 100.177 20.0492 99.9418 19.5795C99.7069 19.1098 99.3963 18.7083 99.0099 18.375C98.6236 18.0417 98.1652 17.7879 97.6349 17.6136C97.1122 17.4318 96.5327 17.3409 95.8963 17.3409C94.7675 17.3409 93.794 17.6174 92.9759 18.1705C92.1652 18.7235 91.5402 19.5227 91.1009 20.5682C90.669 21.6136 90.4531 22.8788 90.4531 24.3636C90.4531 25.9091 90.6728 27.2045 91.1122 28.25C91.5592 29.2879 92.1842 30.072 92.9872 30.6023C93.7978 31.125 94.7562 31.3864 95.8622 31.3864C96.4834 31.3864 97.0478 31.3068 97.5554 31.1477C98.0705 30.9886 98.5213 30.7576 98.9077 30.4545C99.3016 30.1439 99.6236 29.7689 99.8736 29.3295C100.131 28.8826 100.309 28.3788 100.408 27.8182L106.089 27.8523C105.991 28.8826 105.692 29.8977 105.192 30.8977C104.699 31.8977 104.021 32.8106 103.158 33.6364C102.294 34.4545 101.241 35.1061 99.9986 35.5909C98.7637 36.0758 97.3471 36.3182 95.7486 36.3182C93.6425 36.3182 91.7562 35.8561 90.0895 34.9318C88.4304 34 87.1198 32.6439 86.1577 30.8636C85.1955 29.0833 84.7145 26.9167 84.7145 24.3636C84.7145 21.803 85.2031 19.6326 86.1804 17.8523C87.1577 16.072 88.4796 14.7197 90.1463 13.7955C91.813 12.8712 93.6804 12.4091 95.7486 12.4091C97.1577 12.4091 98.4607 12.6061 99.6577 13C100.855 13.3864 101.908 13.9545 102.817 14.7045C103.726 15.447 104.464 16.3598 105.033 17.4432C105.601 18.5265 105.953 19.7652 106.089 21.1591Z" fill="white"/>
<path d="M109.308 36V12.7273H114.933V22.0682H124.104V12.7273H129.717V36H124.104V26.6477H114.933V36H109.308Z" fill="white"/>
<path d="M133.246 36V12.7273H149.473V17.2955H138.871V22.0682H148.643V26.6477H138.871V31.4318H149.473V36H133.246Z" fill="white"/>
<path d="M174.121 21.1591H168.439C168.363 20.5758 168.208 20.0492 167.973 19.5795C167.738 19.1098 167.428 18.7083 167.041 18.375C166.655 18.0417 166.197 17.7879 165.666 17.6136C165.143 17.4318 164.564 17.3409 163.928 17.3409C162.799 17.3409 161.825 17.6174 161.007 18.1705C160.197 18.7235 159.571 19.5227 159.132 20.5682C158.7 21.6136 158.484 22.8788 158.484 24.3636C158.484 25.9091 158.704 27.2045 159.143 28.25C159.59 29.2879 160.215 30.072 161.018 30.6023C161.829 31.125 162.787 31.3864 163.893 31.3864C164.515 31.3864 165.079 31.3068 165.587 31.1477C166.102 30.9886 166.553 30.7576 166.939 30.4545C167.333 30.1439 167.655 29.7689 167.905 29.3295C168.162 28.8826 168.34 28.3788 168.439 27.8182L174.121 27.8523C174.022 28.8826 173.723 29.8977 173.223 30.8977C172.731 31.8977 172.053 32.8106 171.189 33.6364C170.325 34.4545 169.272 35.1061 168.03 35.5909C166.795 36.0758 165.378 36.3182 163.78 36.3182C161.674 36.3182 159.787 35.8561 158.121 34.9318C156.462 34 155.151 32.6439 154.189 30.8636C153.227 29.0833 152.746 26.9167 152.746 24.3636C152.746 21.803 153.234 19.6326 154.212 17.8523C155.189 16.072 156.511 14.7197 158.178 13.7955C159.844 12.8712 161.712 12.4091 163.78 12.4091C165.189 12.4091 166.492 12.6061 167.689 13C168.886 13.3864 169.939 13.9545 170.848 14.7045C171.757 15.447 172.496 16.3598 173.064 17.4432C173.632 18.5265 173.984 19.7652 174.121 21.1591Z" fill="white"/>
<path d="M177.339 36V12.7273H182.964V22.5682H183.271L190.964 12.7273H197.589L189.339 23.1136L197.737 36H191.01L185.214 26.8523L182.964 29.6932V36H177.339Z" fill="white"/>
<path d="M220.399 24.3636C220.399 26.9242 219.907 29.0947 218.922 30.875C217.937 32.6553 216.604 34.0076 214.922 34.9318C213.248 35.8561 211.369 36.3182 209.286 36.3182C207.195 36.3182 205.312 35.8523 203.638 34.9205C201.964 33.9886 200.634 32.6364 199.649 30.8636C198.672 29.0833 198.183 26.9167 198.183 24.3636C198.183 21.803 198.672 19.6326 199.649 17.8523C200.634 16.072 201.964 14.7197 203.638 13.7955C205.312 12.8712 207.195 12.4091 209.286 12.4091C211.369 12.4091 213.248 12.8712 214.922 13.7955C216.604 14.7197 217.937 16.072 218.922 17.8523C219.907 19.6326 220.399 21.803 220.399 24.3636ZM214.649 24.3636C214.649 22.8485 214.433 21.5682 214.001 20.5227C213.577 19.4773 212.964 18.6856 212.161 18.1477C211.365 17.6098 210.407 17.3409 209.286 17.3409C208.172 17.3409 207.214 17.6098 206.411 18.1477C205.607 18.6856 204.99 19.4773 204.558 20.5227C204.134 21.5682 203.922 22.8485 203.922 24.3636C203.922 25.8788 204.134 27.1591 204.558 28.2045C204.99 29.25 205.607 30.0417 206.411 30.5795C207.214 31.1174 208.172 31.3864 209.286 31.3864C210.407 31.3864 211.365 31.1174 212.161 30.5795C212.964 30.0417 213.577 29.25 214.001 28.2045C214.433 27.1591 214.649 25.8788 214.649 24.3636Z" fill="white"/>
<path d="M237.763 12.7273H243.376V27.7386C243.376 29.4735 242.964 30.9848 242.138 32.2727C241.312 33.553 240.161 34.5455 238.683 35.25C237.206 35.947 235.49 36.2955 233.536 36.2955C231.558 36.2955 229.831 35.947 228.354 35.25C226.876 34.5455 225.729 33.553 224.911 32.2727C224.092 30.9848 223.683 29.4735 223.683 27.7386V12.7273H229.308V27.25C229.308 28.053 229.482 28.7689 229.831 29.3977C230.187 30.0265 230.683 30.5189 231.32 30.875C231.956 31.2311 232.695 31.4091 233.536 31.4091C234.376 31.4091 235.111 31.2311 235.74 30.875C236.376 30.5189 236.873 30.0265 237.229 29.3977C237.585 28.7689 237.763 28.053 237.763 27.25V12.7273Z" fill="white"/>
<path d="M246.141 17.2955V12.7273H265.811V17.2955H258.754V36H253.209V17.2955H246.141Z" fill="white"/>
<defs>
<linearGradient id="paint0_linear_182_7" x1="87.2413" y1="43.5" x2="304.08" y2="43.5" gradientUnits="userSpaceOnUse">
<stop stop-color="#D9D9D9" stop-opacity="0.4"/>
<stop offset="1" stop-color="#D9D9D9" stop-opacity="0.4"/>
</linearGradient>
</defs>
</svg>
