<svg width="39" height="26" viewBox="0 0 39 26" fill="none" xmlns="http://www.w3.org/2000/svg">
<path d="M13.9775 0.55249C12.3207 0.55249 10.9775 1.89564 10.9775 3.55249V16.5525C10.9775 17.1048 11.4253 17.5525 11.9775 17.5525H27.9775C28.5298 17.5525 28.9775 17.1048 28.9775 16.5525V3.55249C28.9775 1.89564 27.6344 0.55249 25.9775 0.55249H13.9775Z" fill="#09fbd3"/>
<path d="M2.97754 2.55249C1.87297 2.55249 0.977539 3.44792 0.977539 4.55249V23.5525C0.977539 24.6571 1.87297 25.5525 2.97754 25.5525H36.9775C38.0821 25.5525 38.9775 24.6571 38.9775 23.5525V4.55249C38.9775 3.44792 38.0821 2.55249 36.9775 2.55249H32.1109C31.0063 2.55249 30.1109 3.44792 30.1109 4.55249V16.8442C30.1109 17.9487 29.2154 18.8442 28.1109 18.8442H11.8442C10.7396 18.8442 9.84421 17.9487 9.84421 16.8442V4.55249C9.84421 3.44792 8.94877 2.55249 7.84421 2.55249H2.97754Z" fill="#09fbd3"/>
</svg>
