<svg width="39" height="26" viewBox="0 0 39 26" fill="none" xmlns="http://www.w3.org/2000/svg">
<path d="M13.6943 0.546387C12.0375 0.546387 10.6943 1.88953 10.6943 3.54639V16.5464C10.6943 17.0987 11.1421 17.5464 11.6943 17.5464H27.6943C28.2466 17.5464 28.6943 17.0987 28.6943 16.5464V3.54639C28.6943 1.88953 27.3512 0.546387 25.6943 0.546387H13.6943Z" fill="#09fbd3"/>
<path d="M2.69434 2.54639C1.58977 2.54639 0.694336 3.44182 0.694336 4.54639V23.5464C0.694336 24.651 1.58977 25.5464 2.69434 25.5464H36.6943C37.7989 25.5464 38.6943 24.651 38.6943 23.5464V4.54639C38.6943 3.44182 37.7989 2.54639 36.6943 2.54639H31.8277C30.7231 2.54639 29.8277 3.44182 29.8277 4.54639V16.8381C29.8277 17.9426 28.9322 18.8381 27.8277 18.8381H11.561C10.4564 18.8381 9.561 17.9426 9.561 16.8381V4.54639C9.561 3.44182 8.66557 2.54639 7.561 2.54639H2.69434Z" fill="#09fbd3"/>
</svg>
