<svg width="39" height="26" viewBox="0 0 39 26" fill="none" xmlns="http://www.w3.org/2000/svg">
<path d="M13.7178 0.0490723C12.0609 0.0490723 10.7178 1.39222 10.7178 3.04907V16.0491C10.7178 16.6014 11.1655 17.0491 11.7178 17.0491H27.7178C28.2701 17.0491 28.7178 16.6014 28.7178 16.0491V3.04907C28.7178 1.39222 27.3746 0.0490723 25.7178 0.0490723H13.7178Z" fill="#09fbd3"/>
<path d="M2.71777 2.04907C1.6132 2.04907 0.717773 2.9445 0.717773 4.04907V23.0491C0.717773 24.1536 1.6132 25.0491 2.71777 25.0491H36.7178C37.8223 25.0491 38.7178 24.1536 38.7178 23.0491V4.04907C38.7178 2.9445 37.8223 2.04907 36.7178 2.04907H31.8511C30.7465 2.04907 29.8511 2.9445 29.8511 4.04907V16.3407C29.8511 17.4453 28.9557 18.3407 27.8511 18.3407H11.5844C10.4799 18.3407 9.58444 17.4453 9.58444 16.3407V4.04907C9.58444 2.9445 8.68901 2.04907 7.58444 2.04907H2.71777Z" fill="#09fbd3"/>
</svg>
