<svg width="39" height="26" viewBox="0 0 39 26" fill="none" xmlns="http://www.w3.org/2000/svg">
<path d="M13.8267 0.63916C12.1698 0.63916 10.8267 1.98231 10.8267 3.63916V16.6392C10.8267 17.1914 11.2744 17.6392 11.8267 17.6392H27.8267C28.3789 17.6392 28.8267 17.1914 28.8267 16.6392V3.63916C28.8267 1.98231 27.4835 0.63916 25.8267 0.63916H13.8267Z" fill="#09fbd3"/>
<path d="M2.82666 2.63916C1.72209 2.63916 0.82666 3.53459 0.82666 4.63916V23.6392C0.82666 24.7437 1.72209 25.6392 2.82666 25.6392H36.8267C37.9312 25.6392 38.8267 24.7437 38.8267 23.6392V4.63916C38.8267 3.53459 37.9312 2.63916 36.8267 2.63916H31.96C30.8554 2.63916 29.96 3.53459 29.96 4.63916V16.9308C29.96 18.0354 29.0646 18.9308 27.96 18.9308H11.6933C10.5888 18.9308 9.69333 18.0354 9.69333 16.9308V4.63916C9.69333 3.53459 8.7979 2.63916 7.69333 2.63916H2.82666Z" fill="#09fbd3"/>
</svg>
