<svg width="39" height="26" viewBox="0 0 39 26" fill="none" xmlns="http://www.w3.org/2000/svg">
<path d="M13.0654 0.63916C11.4086 0.63916 10.0654 1.98231 10.0654 3.63916V16.6392C10.0654 17.1914 10.5131 17.6392 11.0654 17.6392H27.0654C27.6177 17.6392 28.0654 17.1914 28.0654 16.6392V3.63916C28.0654 1.98231 26.7223 0.63916 25.0654 0.63916H13.0654Z" fill="#09fbd3"/>
<path d="M2.06543 2.63916C0.96086 2.63916 0.0654297 3.53459 0.0654297 4.63916V23.6392C0.0654297 24.7437 0.960859 25.6392 2.06543 25.6392H36.0654C37.17 25.6392 38.0654 24.7437 38.0654 23.6392V4.63916C38.0654 3.53459 37.17 2.63916 36.0654 2.63916H31.1988C30.0942 2.63916 29.1988 3.53459 29.1988 4.63916V16.9308C29.1988 18.0354 28.3033 18.9308 27.1988 18.9308H10.9321C9.82753 18.9308 8.9321 18.0354 8.9321 16.9308V4.63916C8.9321 3.53459 8.03667 2.63916 6.9321 2.63916H2.06543Z" fill="#09fbd3"/>
</svg>
