<svg width="39" height="26" viewBox="0 0 39 26" fill="none" xmlns="http://www.w3.org/2000/svg">
<path d="M13.6733 0.0490723C12.0165 0.0490723 10.6733 1.39222 10.6733 3.04907V16.0491C10.6733 16.6014 11.1211 17.0491 11.6733 17.0491H27.6733C28.2256 17.0491 28.6733 16.6014 28.6733 16.0491V3.04907C28.6733 1.39222 27.3302 0.0490723 25.6733 0.0490723H13.6733Z" fill="#09fbd3"/>
<path d="M2.67334 2.04907C1.56877 2.04907 0.67334 2.9445 0.67334 4.04907V23.0491C0.67334 24.1536 1.56877 25.0491 2.67334 25.0491H36.6733C37.7779 25.0491 38.6733 24.1536 38.6733 23.0491V4.04907C38.6733 2.9445 37.7779 2.04907 36.6733 2.04907H31.8067C30.7021 2.04907 29.8067 2.9445 29.8067 4.04907V16.3407C29.8067 17.4453 28.9112 18.3407 27.8067 18.3407H11.54C10.4354 18.3407 9.54001 17.4453 9.54001 16.3407V4.04907C9.54001 2.9445 8.64458 2.04907 7.54001 2.04907H2.67334Z" fill="#09fbd3"/>
</svg>
