<svg width="39" height="26" viewBox="0 0 39 26"  xmlns="http://www.w3.org/2000/svg">
<path d="M13.4346 0.0490723C11.7777 0.0490723 10.4346 1.39222 10.4346 3.04907V16.0491C10.4346 16.6014 10.8823 17.0491 11.4346 17.0491H27.4346C27.9869 17.0491 28.4346 16.6014 28.4346 16.0491V3.04907C28.4346 1.39222 27.0914 0.0490723 25.4346 0.0490723H13.4346Z" fill="#09fbd3"/>
<path d="M2.43457 2.04907C1.33 2.04907 0.43457 2.9445 0.43457 4.04907V23.0491C0.43457 24.1536 1.33 25.0491 2.43457 25.0491H36.4346C37.5391 25.0491 38.4346 24.1536 38.4346 23.0491V4.04907C38.4346 2.9445 37.5391 2.04907 36.4346 2.04907H31.5679C30.4633 2.04907 29.5679 2.9445 29.5679 4.04907V16.3407C29.5679 17.4453 28.6725 18.3407 27.5679 18.3407H11.3012C10.1967 18.3407 9.30124 17.4453 9.30124 16.3407V4.04907C9.30124 2.9445 8.40581 2.04907 7.30124 2.04907H2.43457Z" fill="#09fbd3"/>
</svg>
