<svg width="39" height="26" viewBox="0 0 39 26" fill="none" xmlns="http://www.w3.org/2000/svg">
<path d="M13.4116 0.546387C11.7548 0.546387 10.4116 1.88953 10.4116 3.54639V16.5464C10.4116 17.0987 10.8593 17.5464 11.4116 17.5464H27.4116C27.9639 17.5464 28.4116 17.0987 28.4116 16.5464V3.54639C28.4116 1.88953 27.0685 0.546387 25.4116 0.546387H13.4116Z" fill="#09fbd3"/>
<path d="M2.41162 2.54639C1.30705 2.54639 0.411621 3.44182 0.411621 4.54639V23.5464C0.411621 24.651 1.30705 25.5464 2.41162 25.5464H36.4116C37.5162 25.5464 38.4116 24.651 38.4116 23.5464V4.54639C38.4116 3.44182 37.5162 2.54639 36.4116 2.54639H31.545C30.4404 2.54639 29.545 3.44182 29.545 4.54639V16.8381C29.545 17.9426 28.6495 18.8381 27.545 18.8381H11.2783C10.1737 18.8381 9.27829 17.9426 9.27829 16.8381V4.54639C9.27829 3.44182 8.38286 2.54639 7.27829 2.54639H2.41162Z" fill="#09fbd3"/>
</svg>
