<svg width="53" height="34" viewBox="0 0 53 34" fill="none" xmlns="http://www.w3.org/2000/svg">
<path d="M0 9C0 4.02944 4.02944 0 9 0H44C48.9706 0 53 4.02944 53 9V25C53 29.9706 48.9706 34 44 34H9C4.02944 34 0 29.9706 0 25V9Z" fill="url(#paint0_linear_192_71)"/>
<path d="M5.288 14.248V11.304H10.216V23H6.936V14.248H5.288Z" fill="#FFFEFE"/>
<path d="M19.2995 13.64L15.4595 23H12.2435L16.1155 14.008H11.5555V11.32H19.2995V13.64Z" fill="#FFFEFE"/>
<path d="M21.9785 23.128C21.4238 23.128 20.9758 22.9787 20.6345 22.68C20.3038 22.3707 20.1385 21.9813 20.1385 21.512C20.1385 21.0427 20.3038 20.6533 20.6345 20.344C20.9758 20.0347 21.4238 19.88 21.9785 19.88C22.5225 19.88 22.9598 20.0347 23.2905 20.344C23.6318 20.6533 23.8025 21.0427 23.8025 21.512C23.8025 21.9707 23.6318 22.3547 23.2905 22.664C22.9598 22.9733 22.5225 23.128 21.9785 23.128ZM21.9785 16.696C21.4238 16.696 20.9758 16.5467 20.6345 16.248C20.3038 15.9387 20.1385 15.5493 20.1385 15.08C20.1385 14.6107 20.3038 14.2213 20.6345 13.912C20.9758 13.6027 21.4238 13.448 21.9785 13.448C22.5225 13.448 22.9598 13.6027 23.2905 13.912C23.6318 14.2213 23.8025 14.6107 23.8025 15.08C23.8025 15.5387 23.6318 15.9227 23.2905 16.232C22.9598 16.5413 22.5225 16.696 21.9785 16.696Z" fill="#FFFEFE"/>
<path d="M25.0146 16.984C25.0146 15.1493 25.388 13.704 26.1346 12.648C26.8813 11.592 28.0546 11.064 29.6546 11.064C31.2546 11.064 32.428 11.592 33.1746 12.648C33.932 13.704 34.3106 15.1493 34.3106 16.984C34.3106 18.84 33.9373 20.296 33.1906 21.352C32.444 22.408 31.2653 22.936 29.6546 22.936C28.044 22.936 26.8653 22.408 26.1186 21.352C25.3826 20.296 25.0146 18.84 25.0146 16.984ZM31.2066 16.984C31.2066 16.024 31.1053 15.2933 30.9026 14.792C30.7 14.28 30.284 14.024 29.6546 14.024C29.0253 14.024 28.6093 14.28 28.4066 14.792C28.204 15.2933 28.1026 16.024 28.1026 16.984C28.1026 17.9653 28.1986 18.712 28.3906 19.224C28.5933 19.7253 29.0146 19.976 29.6546 19.976C30.2946 19.976 30.7106 19.7253 30.9026 19.224C31.1053 18.712 31.2066 17.9653 31.2066 16.984Z" fill="#FFFEFE"/>
<path d="M35.5303 16.984C35.5303 15.1493 35.9036 13.704 36.6502 12.648C37.3969 11.592 38.5702 11.064 40.1702 11.064C41.7702 11.064 42.9436 11.592 43.6903 12.648C44.4476 13.704 44.8262 15.1493 44.8262 16.984C44.8262 18.84 44.4529 20.296 43.7062 21.352C42.9596 22.408 41.7809 22.936 40.1702 22.936C38.5596 22.936 37.3809 22.408 36.6343 21.352C35.8983 20.296 35.5303 18.84 35.5303 16.984ZM41.7223 16.984C41.7223 16.024 41.6209 15.2933 41.4183 14.792C41.2156 14.28 40.7996 14.024 40.1702 14.024C39.5409 14.024 39.1249 14.28 38.9222 14.792C38.7196 15.2933 38.6183 16.024 38.6183 16.984C38.6183 17.9653 38.7143 18.712 38.9062 19.224C39.1089 19.7253 39.5302 19.976 40.1702 19.976C40.8102 19.976 41.2263 19.7253 41.4183 19.224C41.6209 18.712 41.7223 17.9653 41.7223 16.984Z" fill="#FFFEFE"/>
<defs>
<linearGradient id="paint0_linear_192_71" x1="26.5" y1="-3.72161e-07" x2="34.3766" y2="33.4296" gradientUnits="userSpaceOnUse">
<stop stop-color="#0ADFF7"/>
<stop offset="1" stop-color="#FC0E41"/>
</linearGradient>
</defs>
</svg>
