<svg width="68" height="34" viewBox="0 0 68 34" fill="none" xmlns="http://www.w3.org/2000/svg">
<path d="M0 9C0 4.02944 4.02944 0 9 0H59C63.9706 0 68 4.02944 68 9V25C68 29.9706 63.9706 34 59 34H9C4.02944 34 0 29.9706 0 25V9Z" fill="url(#paint0_linear_192_73)"/>
<path d="M13.288 14.248V11.304H18.216V23H14.936V14.248H13.288Z" fill="#FFFEFE"/>
<path d="M21.6995 16.648C20.7502 16.1253 20.2755 15.3093 20.2755 14.2C20.2755 13.624 20.4248 13.1013 20.7235 12.632C21.0328 12.152 21.4968 11.7733 22.1155 11.496C22.7342 11.208 23.4968 11.064 24.4035 11.064C25.3102 11.064 26.0728 11.208 26.6915 11.496C27.3102 11.7733 27.7688 12.152 28.0675 12.632C28.3768 13.1013 28.5315 13.624 28.5315 14.2C28.5315 14.7653 28.4035 15.256 28.1475 15.672C27.9022 16.0773 27.5555 16.4027 27.1075 16.648C27.6622 16.936 28.0835 17.32 28.3715 17.8C28.6595 18.28 28.8035 18.8453 28.8035 19.496C28.8035 20.2747 28.6062 20.9467 28.2115 21.512C27.8168 22.0667 27.2835 22.488 26.6115 22.776C25.9502 23.064 25.2142 23.208 24.4035 23.208C23.5928 23.208 22.8515 23.064 22.1795 22.776C21.5182 22.488 20.9902 22.0667 20.5955 21.512C20.2008 20.9467 20.0035 20.2747 20.0035 19.496C20.0035 18.8453 20.1475 18.28 20.4355 17.8C20.7235 17.32 21.1448 16.936 21.6995 16.648ZM25.4595 14.696C25.4595 14.3227 25.3635 14.0347 25.1715 13.832C24.9795 13.6187 24.7235 13.512 24.4035 13.512C24.0942 13.512 23.8382 13.6187 23.6355 13.832C23.4435 14.0453 23.3475 14.3333 23.3475 14.696C23.3475 15.0587 23.4435 15.3413 23.6355 15.544C23.8382 15.7467 24.0942 15.848 24.4035 15.848C24.7128 15.848 24.9635 15.7467 25.1555 15.544C25.3582 15.3413 25.4595 15.0587 25.4595 14.696ZM24.4035 17.992C23.9982 17.992 23.6675 18.1147 23.4115 18.36C23.1662 18.5947 23.0435 18.9147 23.0435 19.32C23.0435 19.704 23.1662 20.0187 23.4115 20.264C23.6568 20.5093 23.9875 20.632 24.4035 20.632C24.8195 20.632 25.1448 20.5093 25.3795 20.264C25.6248 20.0187 25.7475 19.704 25.7475 19.32C25.7475 18.9147 25.6248 18.5947 25.3795 18.36C25.1342 18.1147 24.8088 17.992 24.4035 17.992Z" fill="#FFFEFE"/>
<path d="M32.0566 23.128C31.502 23.128 31.054 22.9787 30.7126 22.68C30.382 22.3707 30.2166 21.9813 30.2166 21.512C30.2166 21.0427 30.382 20.6533 30.7126 20.344C31.054 20.0347 31.502 19.88 32.0566 19.88C32.6006 19.88 33.038 20.0347 33.3686 20.344C33.71 20.6533 33.8806 21.0427 33.8806 21.512C33.8806 21.9707 33.71 22.3547 33.3686 22.664C33.038 22.9733 32.6006 23.128 32.0566 23.128ZM32.0566 16.696C31.502 16.696 31.054 16.5467 30.7126 16.248C30.382 15.9387 30.2166 15.5493 30.2166 15.08C30.2166 14.6107 30.382 14.2213 30.7126 13.912C31.054 13.6027 31.502 13.448 32.0566 13.448C32.6006 13.448 33.038 13.6027 33.3686 13.912C33.71 14.2213 33.8806 14.6107 33.8806 15.08C33.8806 15.5387 33.71 15.9227 33.3686 16.232C33.038 16.5413 32.6006 16.696 32.0566 16.696Z" fill="#FFFEFE"/>
<path d="M35.0928 16.984C35.0928 15.1493 35.4661 13.704 36.2127 12.648C36.9594 11.592 38.1327 11.064 39.7327 11.064C41.3327 11.064 42.5061 11.592 43.2528 12.648C44.0101 13.704 44.3887 15.1493 44.3887 16.984C44.3887 18.84 44.0154 20.296 43.2687 21.352C42.5221 22.408 41.3434 22.936 39.7327 22.936C38.1221 22.936 36.9434 22.408 36.1968 21.352C35.4608 20.296 35.0928 18.84 35.0928 16.984ZM41.2848 16.984C41.2848 16.024 41.1834 15.2933 40.9808 14.792C40.7781 14.28 40.3621 14.024 39.7327 14.024C39.1034 14.024 38.6874 14.28 38.4847 14.792C38.2821 15.2933 38.1808 16.024 38.1808 16.984C38.1808 17.9653 38.2768 18.712 38.4688 19.224C38.6714 19.7253 39.0927 19.976 39.7327 19.976C40.3727 19.976 40.7888 19.7253 40.9808 19.224C41.1834 18.712 41.2848 17.9653 41.2848 16.984Z" fill="#FFFEFE"/>
<path d="M45.6084 16.984C45.6084 15.1493 45.9817 13.704 46.7284 12.648C47.475 11.592 48.6484 11.064 50.2484 11.064C51.8484 11.064 53.0217 11.592 53.7684 12.648C54.5257 13.704 54.9044 15.1493 54.9044 16.984C54.9044 18.84 54.531 20.296 53.7844 21.352C53.0377 22.408 51.859 22.936 50.2484 22.936C48.6377 22.936 47.459 22.408 46.7124 21.352C45.9764 20.296 45.6084 18.84 45.6084 16.984ZM51.8004 16.984C51.8004 16.024 51.699 15.2933 51.4964 14.792C51.2937 14.28 50.8777 14.024 50.2484 14.024C49.619 14.024 49.203 14.28 49.0004 14.792C48.7977 15.2933 48.6964 16.024 48.6964 16.984C48.6964 17.9653 48.7924 18.712 48.9844 19.224C49.187 19.7253 49.6084 19.976 50.2484 19.976C50.8884 19.976 51.3044 19.7253 51.4964 19.224C51.699 18.712 51.8004 17.9653 51.8004 16.984Z" fill="#FFFEFE"/>
<defs>
<linearGradient id="paint0_linear_192_73" x1="34" y1="-3.72161e-07" x2="40.2685" y2="34.1343" gradientUnits="userSpaceOnUse">
<stop stop-color="#0ADFF7"/>
<stop offset="1" stop-color="#FC0E41"/>
</linearGradient>
</defs>
</svg>
