<svg width="53" height="34" viewBox="0 0 53 34" fill="none" xmlns="http://www.w3.org/2000/svg">
<path d="M0 9C0 4.02944 4.02944 0 9 0H44C48.9706 0 53 4.02944 53 9V25C53 29.9706 48.9706 34 44 34H9C4.02944 34 0 29.9706 0 25V9Z" fill="url(#paint0_linear_192_75)"/>
<path d="M5.288 14.248V11.304H10.216V23H6.936V14.248H5.288Z" fill="#FFFEFE"/>
<path d="M15.0595 19.464C15.1875 20.1893 15.5822 20.552 16.2435 20.552C16.7235 20.552 17.0488 20.328 17.2195 19.88C17.4008 19.4213 17.4915 18.6907 17.4915 17.688C17.2782 17.9973 16.9795 18.2427 16.5955 18.424C16.2115 18.6053 15.7795 18.696 15.2995 18.696C14.2755 18.696 13.4435 18.376 12.8035 17.736C12.1635 17.096 11.8435 16.1733 11.8435 14.968C11.8435 14.1787 12.0088 13.4907 12.3395 12.904C12.6702 12.3067 13.1395 11.848 13.7475 11.528C14.3662 11.208 15.0862 11.048 15.9075 11.048C17.5395 11.048 18.6755 11.544 19.3155 12.536C19.9662 13.5173 20.2915 14.9467 20.2915 16.824C20.2915 18.9253 19.9768 20.4933 19.3475 21.528C18.7288 22.5627 17.6622 23.08 16.1475 23.08C15.3262 23.08 14.6168 22.9147 14.0195 22.584C13.4328 22.2427 12.9795 21.8 12.6595 21.256C12.3502 20.7013 12.1742 20.104 12.1315 19.464H15.0595ZM16.0515 16.264C16.4248 16.264 16.7182 16.1573 16.9315 15.944C17.1448 15.72 17.2515 15.4213 17.2515 15.048C17.2515 14.6213 17.1395 14.3013 16.9155 14.088C16.7022 13.8747 16.4035 13.768 16.0195 13.768C15.6355 13.768 15.3315 13.88 15.1075 14.104C14.8942 14.3173 14.7875 14.6267 14.7875 15.032C14.7875 15.4053 14.8942 15.704 15.1075 15.928C15.3315 16.152 15.6462 16.264 16.0515 16.264Z" fill="#FFFEFE"/>
<path d="M23.3066 23.128C22.752 23.128 22.304 22.9787 21.9626 22.68C21.632 22.3707 21.4666 21.9813 21.4666 21.512C21.4666 21.0427 21.632 20.6533 21.9626 20.344C22.304 20.0347 22.752 19.88 23.3066 19.88C23.8506 19.88 24.288 20.0347 24.6186 20.344C24.96 20.6533 25.1306 21.0427 25.1306 21.512C25.1306 21.9707 24.96 22.3547 24.6186 22.664C24.288 22.9733 23.8506 23.128 23.3066 23.128ZM23.3066 16.696C22.752 16.696 22.304 16.5467 21.9626 16.248C21.632 15.9387 21.4666 15.5493 21.4666 15.08C21.4666 14.6107 21.632 14.2213 21.9626 13.912C22.304 13.6027 22.752 13.448 23.3066 13.448C23.8506 13.448 24.288 13.6027 24.6186 13.912C24.96 14.2213 25.1306 14.6107 25.1306 15.08C25.1306 15.5387 24.96 15.9227 24.6186 16.232C24.288 16.5413 23.8506 16.696 23.3066 16.696Z" fill="#FFFEFE"/>
<path d="M26.3428 16.984C26.3428 15.1493 26.7161 13.704 27.4627 12.648C28.2094 11.592 29.3827 11.064 30.9827 11.064C32.5827 11.064 33.7561 11.592 34.5028 12.648C35.2601 13.704 35.6387 15.1493 35.6387 16.984C35.6387 18.84 35.2654 20.296 34.5187 21.352C33.7721 22.408 32.5934 22.936 30.9827 22.936C29.3721 22.936 28.1934 22.408 27.4468 21.352C26.7108 20.296 26.3428 18.84 26.3428 16.984ZM32.5348 16.984C32.5348 16.024 32.4334 15.2933 32.2308 14.792C32.0281 14.28 31.6121 14.024 30.9827 14.024C30.3534 14.024 29.9374 14.28 29.7348 14.792C29.5321 15.2933 29.4307 16.024 29.4307 16.984C29.4307 17.9653 29.5268 18.712 29.7188 19.224C29.9214 19.7253 30.3427 19.976 30.9827 19.976C31.6227 19.976 32.0388 19.7253 32.2308 19.224C32.4334 18.712 32.5348 17.9653 32.5348 16.984Z" fill="#FFFEFE"/>
<path d="M36.8584 16.984C36.8584 15.1493 37.2317 13.704 37.9784 12.648C38.725 11.592 39.8984 11.064 41.4984 11.064C43.0984 11.064 44.2717 11.592 45.0184 12.648C45.7757 13.704 46.1544 15.1493 46.1544 16.984C46.1544 18.84 45.781 20.296 45.0344 21.352C44.2877 22.408 43.109 22.936 41.4984 22.936C39.8877 22.936 38.709 22.408 37.9624 21.352C37.2264 20.296 36.8584 18.84 36.8584 16.984ZM43.0504 16.984C43.0504 16.024 42.949 15.2933 42.7464 14.792C42.5437 14.28 42.1277 14.024 41.4984 14.024C40.869 14.024 40.453 14.28 40.2504 14.792C40.0477 15.2933 39.9464 16.024 39.9464 16.984C39.9464 17.9653 40.0424 18.712 40.2344 19.224C40.437 19.7253 40.8584 19.976 41.4984 19.976C42.1384 19.976 42.5544 19.7253 42.7464 19.224C42.949 18.712 43.0504 17.9653 43.0504 16.984Z" fill="#FFFEFE"/>
<defs>
<linearGradient id="paint0_linear_192_75" x1="26.5" y1="-3.72161e-07" x2="34.3766" y2="33.4296" gradientUnits="userSpaceOnUse">
<stop stop-color="#0ADFF7"/>
<stop offset="1" stop-color="#FC0E41"/>
</linearGradient>
</defs>
</svg>
