<svg width="53" height="78" viewBox="0 0 53 78" fill="none" xmlns="http://www.w3.org/2000/svg">
<path d="M0 9C0 4.02944 4.02944 0 9 0H44C48.9706 0 53 4.02944 53 9V69C53 73.9706 48.9706 78 44 78H9C4.02944 78 0 73.9706 0 69V9Z" fill="url(#paint0_linear_192_78)"/>
<path d="M19.392 21.72V24.216H16.384V33H13.248V24.216H10.272V21.72H19.392Z" fill="#FFFEFE"/>
<path d="M30.6483 21.72V33H27.5123V28.472H23.6882V33H20.5522V21.72H23.6882V25.96H27.5123V21.72H30.6483Z" fill="#FFFEFE"/>
<path d="M35.5149 21.72V28.264C35.5149 28.872 35.6535 29.3413 35.9309 29.672C36.2189 30.0027 36.6509 30.168 37.2269 30.168C37.8029 30.168 38.2349 30.0027 38.5229 29.672C38.8215 29.3307 38.9709 28.8613 38.9709 28.264V21.72H42.1069V28.264C42.1069 29.2987 41.8882 30.184 41.4509 30.92C41.0135 31.6453 40.4162 32.1947 39.6589 32.568C38.9122 32.9307 38.0802 33.112 37.1629 33.112C36.2455 33.112 35.4242 32.9307 34.6989 32.568C33.9842 32.1947 33.4189 31.6453 33.0029 30.92C32.5975 30.1947 32.3949 29.3093 32.3949 28.264V21.72H35.5149Z" fill="#FFFEFE"/>
<path d="M19.7155 54.488C20.7502 53.6773 21.5982 52.9787 22.2595 52.392C22.9208 51.8053 23.4755 51.2027 23.9235 50.584C24.3715 49.9547 24.5955 49.3573 24.5955 48.792C24.5955 48.4507 24.5155 48.184 24.3555 47.992C24.2062 47.8 23.9822 47.704 23.6835 47.704C23.3742 47.704 23.1342 47.8373 22.9635 48.104C22.7928 48.36 22.7128 48.7387 22.7235 49.24H19.6835C19.7155 48.2907 19.9235 47.5067 20.3075 46.888C20.6915 46.2587 21.1928 45.8 21.8115 45.512C22.4302 45.2133 23.1182 45.064 23.8755 45.064C25.1875 45.064 26.1635 45.3893 26.8035 46.04C27.4435 46.6907 27.7635 47.5333 27.7635 48.568C27.7635 49.6773 27.3902 50.7173 26.6435 51.688C25.9075 52.6587 24.9848 53.528 23.8755 54.296H27.8755V56.84H19.7155V54.488Z" fill="#FFFEFE"/>
<path d="M28.5849 48.248V45.304H33.5129V57H30.2329V48.248H28.5849Z" fill="#FFFEFE"/>
<defs>
<linearGradient id="paint0_linear_192_78" x1="26.5" y1="-8.53781e-07" x2="60.3619" y2="62.6457" gradientUnits="userSpaceOnUse">
<stop stop-color="#0ADFF7"/>
<stop offset="1" stop-color="#FC0E41"/>
</linearGradient>
</defs>
</svg>
