<svg width="68" height="104" viewBox="0 0 68 104" fill="none" xmlns="http://www.w3.org/2000/svg">
<path d="M0 9C0 4.02943 4.02944 0 9 0H59C63.9706 0 68 4.02944 68 9V95C68 99.9706 63.9706 104 59 104H9C4.02944 104 0 99.9706 0 95V9Z" fill="url(#paint0_linear_192_72)"/>
<path d="M26.392 36.72V39.216H23.384V48H20.248V39.216H17.272V36.72H26.392Z" fill="#FFFEFE"/>
<path d="M37.6483 36.72V48H34.5122V43.472H30.6882V48H27.5522V36.72H30.6882V40.96H34.5122V36.72H37.6483Z" fill="#FFFEFE"/>
<path d="M42.5149 36.72V43.264C42.5149 43.872 42.6535 44.3413 42.9309 44.672C43.2189 45.0027 43.6509 45.168 44.2269 45.168C44.8029 45.168 45.2349 45.0027 45.5229 44.672C45.8215 44.3307 45.9709 43.8613 45.9709 43.264V36.72H49.1069V43.264C49.1069 44.2987 48.8882 45.184 48.4509 45.92C48.0135 46.6453 47.4162 47.1947 46.6589 47.568C45.9122 47.9307 45.0802 48.112 44.1629 48.112C43.2455 48.112 42.4242 47.9307 41.6989 47.568C40.9842 47.1947 40.4189 46.6453 40.0029 45.92C39.5975 45.1947 39.3949 44.3093 39.3949 43.264V36.72H42.5149Z" fill="#FFFEFE"/>
<path d="M26.7155 69.488C27.7502 68.6773 28.5982 67.9787 29.2595 67.392C29.9208 66.8053 30.4755 66.2027 30.9235 65.584C31.3715 64.9547 31.5955 64.3573 31.5955 63.792C31.5955 63.4507 31.5155 63.184 31.3555 62.992C31.2062 62.8 30.9822 62.704 30.6835 62.704C30.3742 62.704 30.1342 62.8373 29.9635 63.104C29.7928 63.36 29.7128 63.7387 29.7235 64.24H26.6835C26.7155 63.2907 26.9235 62.5067 27.3075 61.888C27.6915 61.2587 28.1928 60.8 28.8115 60.512C29.4302 60.2133 30.1182 60.064 30.8755 60.064C32.1875 60.064 33.1635 60.3893 33.8035 61.04C34.4435 61.6907 34.7635 62.5333 34.7635 63.568C34.7635 64.6773 34.3902 65.7173 33.6435 66.688C32.9075 67.6587 31.9848 68.528 30.8755 69.296H34.8755V71.84H26.7155V69.488Z" fill="#FFFEFE"/>
<path d="M35.5849 63.248V60.304H40.5129V72H37.2329V63.248H35.5849Z" fill="#FFFEFE"/>
<defs>
<linearGradient id="paint0_linear_192_72" x1="34" y1="-1.13838e-06" x2="80.0865" y2="82.044" gradientUnits="userSpaceOnUse">
<stop stop-color="#FC0E41"/>
<stop offset="1" stop-color="#BC7383"/>
</linearGradient>
</defs>
</svg>
