<svg width="53" height="34" viewBox="0 0 53 34" fill="none" xmlns="http://www.w3.org/2000/svg">
<path d="M0 9C0 4.02944 4.02944 0 9 0H44C48.9706 0 53 4.02944 53 9V25C53 29.9706 48.9706 34 44 34H9C4.02944 34 0 29.9706 0 25V9Z" fill="url(#paint0_linear_192_77)"/>
<path d="M5.528 20.488C6.56267 19.6773 7.41067 18.9787 8.072 18.392C8.73333 17.8053 9.288 17.2027 9.736 16.584C10.184 15.9547 10.408 15.3573 10.408 14.792C10.408 14.4507 10.328 14.184 10.168 13.992C10.0187 13.8 9.79467 13.704 9.496 13.704C9.18667 13.704 8.94667 13.8373 8.776 14.104C8.60533 14.36 8.52533 14.7387 8.536 15.24H5.496C5.528 14.2907 5.736 13.5067 6.12 12.888C6.504 12.2587 7.00533 11.8 7.624 11.512C8.24267 11.2133 8.93067 11.064 9.688 11.064C11 11.064 11.976 11.3893 12.616 12.04C13.256 12.6907 13.576 13.5333 13.576 14.568C13.576 15.6773 13.2027 16.7173 12.456 17.688C11.72 18.6587 10.7973 19.528 9.688 20.296H13.688V22.84H5.528V20.488Z" fill="#FFFEFE"/>
<path d="M14.7334 16.984C14.7334 15.1493 15.1067 13.704 15.8534 12.648C16.6 11.592 17.7734 11.064 19.3734 11.064C20.9734 11.064 22.1467 11.592 22.8934 12.648C23.6507 13.704 24.0294 15.1493 24.0294 16.984C24.0294 18.84 23.656 20.296 22.9094 21.352C22.1627 22.408 20.984 22.936 19.3734 22.936C17.7627 22.936 16.584 22.408 15.8374 21.352C15.1014 20.296 14.7334 18.84 14.7334 16.984ZM20.9254 16.984C20.9254 16.024 20.824 15.2933 20.6214 14.792C20.4187 14.28 20.0027 14.024 19.3734 14.024C18.744 14.024 18.328 14.28 18.1254 14.792C17.9227 15.2933 17.8214 16.024 17.8214 16.984C17.8214 17.9653 17.9174 18.712 18.1094 19.224C18.312 19.7253 18.7334 19.976 19.3734 19.976C20.0134 19.976 20.4294 19.7253 20.6214 19.224C20.824 18.712 20.9254 17.9653 20.9254 16.984Z" fill="#FFFEFE"/>
<path d="M27.041 23.128C26.4863 23.128 26.0383 22.9787 25.697 22.68C25.3663 22.3707 25.201 21.9813 25.201 21.512C25.201 21.0427 25.3663 20.6533 25.697 20.344C26.0383 20.0347 26.4863 19.88 27.041 19.88C27.585 19.88 28.0223 20.0347 28.353 20.344C28.6943 20.6533 28.865 21.0427 28.865 21.512C28.865 21.9707 28.6943 22.3547 28.353 22.664C28.0223 22.9733 27.585 23.128 27.041 23.128ZM27.041 16.696C26.4863 16.696 26.0383 16.5467 25.697 16.248C25.3663 15.9387 25.201 15.5493 25.201 15.08C25.201 14.6107 25.3663 14.2213 25.697 13.912C26.0383 13.6027 26.4863 13.448 27.041 13.448C27.585 13.448 28.0223 13.6027 28.353 13.912C28.6943 14.2213 28.865 14.6107 28.865 15.08C28.865 15.5387 28.6943 15.9227 28.353 16.232C28.0223 16.5413 27.585 16.696 27.041 16.696Z" fill="#FFFEFE"/>
<path d="M30.0771 16.984C30.0771 15.1493 30.4505 13.704 31.1971 12.648C31.9438 11.592 33.1171 11.064 34.7171 11.064C36.3171 11.064 37.4905 11.592 38.2371 12.648C38.9945 13.704 39.3731 15.1493 39.3731 16.984C39.3731 18.84 38.9998 20.296 38.2531 21.352C37.5065 22.408 36.3278 22.936 34.7171 22.936C33.1065 22.936 31.9278 22.408 31.1811 21.352C30.4451 20.296 30.0771 18.84 30.0771 16.984ZM36.2691 16.984C36.2691 16.024 36.1678 15.2933 35.9651 14.792C35.7625 14.28 35.3465 14.024 34.7171 14.024C34.0878 14.024 33.6718 14.28 33.4691 14.792C33.2665 15.2933 33.1651 16.024 33.1651 16.984C33.1651 17.9653 33.2611 18.712 33.4531 19.224C33.6558 19.7253 34.0771 19.976 34.7171 19.976C35.3571 19.976 35.7731 19.7253 35.9651 19.224C36.1678 18.712 36.2691 17.9653 36.2691 16.984Z" fill="#FFFEFE"/>
<path d="M40.5928 16.984C40.5928 15.1493 40.9661 13.704 41.7127 12.648C42.4594 11.592 43.6327 11.064 45.2327 11.064C46.8327 11.064 48.0061 11.592 48.7528 12.648C49.5101 13.704 49.8887 15.1493 49.8887 16.984C49.8887 18.84 49.5154 20.296 48.7687 21.352C48.0221 22.408 46.8434 22.936 45.2327 22.936C43.6221 22.936 42.4434 22.408 41.6968 21.352C40.9608 20.296 40.5928 18.84 40.5928 16.984ZM46.7848 16.984C46.7848 16.024 46.6834 15.2933 46.4808 14.792C46.2781 14.28 45.8621 14.024 45.2327 14.024C44.6034 14.024 44.1874 14.28 43.9847 14.792C43.7821 15.2933 43.6808 16.024 43.6808 16.984C43.6808 17.9653 43.7768 18.712 43.9688 19.224C44.1714 19.7253 44.5927 19.976 45.2327 19.976C45.8727 19.976 46.2888 19.7253 46.4808 19.224C46.6834 18.712 46.7848 17.9653 46.7848 16.984Z" fill="#FFFEFE"/>
<defs>
<linearGradient id="paint0_linear_192_77" x1="26.5" y1="-3.72161e-07" x2="34.3766" y2="33.4296" gradientUnits="userSpaceOnUse">
<stop stop-color="#0ADFF7"/>
<stop offset="1" stop-color="#FC0E41"/>
</linearGradient>
</defs>
</svg>
