<svg width="53" height="34" viewBox="0 0 53 34" fill="none" xmlns="http://www.w3.org/2000/svg">
<path d="M0 9C0 4.02944 4.02944 0 9 0H44C48.9706 0 53 4.02944 53 9V25C53 29.9706 48.9706 34 44 34H9C4.02944 34 0 29.9706 0 25V9Z" fill="url(#paint0_linear_192_79)"/>
<path d="M5.288 14.248V11.304H10.216V23H6.936V14.248H5.288Z" fill="#FFFEFE"/>
<path d="M17.3635 14.664C17.2888 14.3013 17.1662 14.0347 16.9955 13.864C16.8248 13.6933 16.5742 13.608 16.2435 13.608C15.7422 13.608 15.3902 13.8427 15.1875 14.312C14.9955 14.7813 14.8942 15.5173 14.8835 16.52C15.0968 16.1893 15.4062 15.928 15.8115 15.736C16.2168 15.544 16.6648 15.448 17.1555 15.448C18.1902 15.448 19.0168 15.768 19.6355 16.408C20.2648 17.048 20.5795 17.9653 20.5795 19.16C20.5795 19.9493 20.4142 20.6427 20.0835 21.24C19.7635 21.8267 19.2942 22.28 18.6755 22.6C18.0675 22.92 17.3475 23.08 16.5155 23.08C14.8622 23.08 13.7102 22.568 13.0595 21.544C12.4195 20.5093 12.0995 19.048 12.0995 17.16C12.0995 15.0693 12.4408 13.5333 13.1235 12.552C13.8062 11.5707 14.9048 11.08 16.4195 11.08C17.6462 11.08 18.5742 11.4267 19.2035 12.12C19.8435 12.8027 20.2008 13.6507 20.2755 14.664H17.3635ZM16.3875 17.88C16.0142 17.88 15.7048 17.9867 15.4595 18.2C15.2248 18.4133 15.1075 18.7173 15.1075 19.112C15.1075 19.528 15.2195 19.848 15.4435 20.072C15.6675 20.296 15.9875 20.408 16.4035 20.408C16.7875 20.408 17.0862 20.3013 17.2995 20.088C17.5235 19.864 17.6355 19.5493 17.6355 19.144C17.6355 18.7493 17.5235 18.44 17.2995 18.216C17.0862 17.992 16.7822 17.88 16.3875 17.88Z" fill="#FFFEFE"/>
<path d="M23.7598 23.128C23.2051 23.128 22.7571 22.9787 22.4158 22.68C22.0851 22.3707 21.9198 21.9813 21.9198 21.512C21.9198 21.0427 22.0851 20.6533 22.4158 20.344C22.7571 20.0347 23.2051 19.88 23.7598 19.88C24.3038 19.88 24.7411 20.0347 25.0718 20.344C25.4131 20.6533 25.5837 21.0427 25.5837 21.512C25.5837 21.9707 25.4131 22.3547 25.0718 22.664C24.7411 22.9733 24.3038 23.128 23.7598 23.128ZM23.7598 16.696C23.2051 16.696 22.7571 16.5467 22.4158 16.248C22.0851 15.9387 21.9198 15.5493 21.9198 15.08C21.9198 14.6107 22.0851 14.2213 22.4158 13.912C22.7571 13.6027 23.2051 13.448 23.7598 13.448C24.3038 13.448 24.7411 13.6027 25.0718 13.912C25.4131 14.2213 25.5837 14.6107 25.5837 15.08C25.5837 15.5387 25.4131 15.9227 25.0718 16.232C24.7411 16.5413 24.3038 16.696 23.7598 16.696Z" fill="#FFFEFE"/>
<path d="M26.7959 16.984C26.7959 15.1493 27.1692 13.704 27.9159 12.648C28.6625 11.592 29.8359 11.064 31.4359 11.064C33.0359 11.064 34.2092 11.592 34.9559 12.648C35.7132 13.704 36.0919 15.1493 36.0919 16.984C36.0919 18.84 35.7185 20.296 34.9719 21.352C34.2252 22.408 33.0465 22.936 31.4359 22.936C29.8252 22.936 28.6465 22.408 27.8999 21.352C27.1639 20.296 26.7959 18.84 26.7959 16.984ZM32.9879 16.984C32.9879 16.024 32.8865 15.2933 32.6839 14.792C32.4812 14.28 32.0652 14.024 31.4359 14.024C30.8065 14.024 30.3905 14.28 30.1879 14.792C29.9852 15.2933 29.8839 16.024 29.8839 16.984C29.8839 17.9653 29.9799 18.712 30.1719 19.224C30.3745 19.7253 30.7959 19.976 31.4359 19.976C32.0759 19.976 32.4919 19.7253 32.6839 19.224C32.8865 18.712 32.9879 17.9653 32.9879 16.984Z" fill="#FFFEFE"/>
<path d="M37.3115 16.984C37.3115 15.1493 37.6848 13.704 38.4315 12.648C39.1782 11.592 40.3515 11.064 41.9515 11.064C43.5515 11.064 44.7248 11.592 45.4715 12.648C46.2288 13.704 46.6075 15.1493 46.6075 16.984C46.6075 18.84 46.2342 20.296 45.4875 21.352C44.7408 22.408 43.5622 22.936 41.9515 22.936C40.3408 22.936 39.1622 22.408 38.4155 21.352C37.6795 20.296 37.3115 18.84 37.3115 16.984ZM43.5035 16.984C43.5035 16.024 43.4022 15.2933 43.1995 14.792C42.9968 14.28 42.5808 14.024 41.9515 14.024C41.3222 14.024 40.9062 14.28 40.7035 14.792C40.5008 15.2933 40.3995 16.024 40.3995 16.984C40.3995 17.9653 40.4955 18.712 40.6875 19.224C40.8902 19.7253 41.3115 19.976 41.9515 19.976C42.5915 19.976 43.0075 19.7253 43.1995 19.224C43.4022 18.712 43.5035 17.9653 43.5035 16.984Z" fill="#FFFEFE"/>
<defs>
<linearGradient id="paint0_linear_192_79" x1="26.5" y1="-3.72161e-07" x2="34.3766" y2="33.4296" gradientUnits="userSpaceOnUse">
<stop stop-color="#0ADFF7"/>
<stop offset="1" stop-color="#FC0E41"/>
</linearGradient>
</defs>
</svg>
